<svg viewBox="0 0 200 50" xmlns="http://www.w3.org/2000/svg">
  <defs>
    <!-- Moon gradient -->
    <radialGradient id="moonGradient" cx="50%" cy="30%">
      <stop offset="0%" style="stop-color:#f0f0f0;stop-opacity:1" />
      <stop offset="70%" style="stop-color:#b0b0b0;stop-opacity:1" />
      <stop offset="100%" style="stop-color:#808080;stop-opacity:1" />
    </radialGradient>
  </defs>

  <!-- Moon circle -->
  <circle cx="25" cy="25" r="20" fill="url(#moonGradient)" stroke="#a0a0a0" stroke-width="0.5"/>

  <!-- Moon craters for detail -->
  <circle cx="20" cy="20" r="3" fill="#d0d0d0" opacity="0.4"/>
  <circle cx="28" cy="27" r="2" fill="#d0d0d0" opacity="0.4"/>
  <circle cx="23" cy="30" r="1.5" fill="#d0d0d0" opacity="0.4"/>

  <!-- Jet aircraft top-down view in black with swept wings, rotated 45° to point NE -->
  <g fill="#000000" opacity="0.9" transform="rotate(45 25 25)">
    <!-- Fuselage (elongated vertical rectangle) -->
    <rect x="23.5" y="14" width="3" height="22" rx="1.5"/>
    <!-- Pointed nose -->
    <polygon points="25,14 23.5,18 26.5,18"/>
    <!-- Swept-back main wings (left wing) -->
    <polygon points="10,27 23.5,23 23.5,27 12,29"/>
    <!-- Swept-back main wings (right wing) -->
    <polygon points="40,27 26.5,23 26.5,27 38,29"/>
    <!-- Swept tail stabilizers (left) -->
    <polygon points="20,35 23.5,33 23.5,35"/>
    <!-- Swept tail stabilizers (right) -->
    <polygon points="30,35 26.5,33 26.5,35"/>
  </g>

  <!-- Flymoon text -->
  <text x="52" y="34" font-family="Arial, sans-serif" font-size="28" fill="white" font-weight="bold" letter-spacing="1">
    Flymoon
  </text>

  <!-- Subtle tagline -->
  <text x="54" y="44" font-family="Arial, sans-serif" font-size="8" fill="#888" font-style="italic">
    Transit Tracker
  </text>
</svg>
